<svg width="800" height="800" xmlns="http://www.w3.org/2000/svg">
        <rect width="100%" height="100%" fill="white"/>
        <text x="50%" y="50%" font-family="Arial" font-size="20" text-anchor="middle" fill="black">Generated image based on: make him cooler</text><rect x="370" y="173" width="54" height="54" fill="#ff6e40" opacity="0.48328674520009446"/><rect x="94.5" y="223.5" width="123" height="123" fill="#b2ff59" opacity="0.4557250578884359"/><circle cx="433" cy="420" r="60.5" fill="#ff4081" opacity="0.46465654968501696"/><circle cx="94" cy="479" r="28" fill="#7c4dff" opacity="0.42338641477234035"/><rect x="442.5" y="154.5" width="145" height="145" fill="#448aff" opacity="0.4636593337672172"/><circle cx="658" cy="476" r="57" fill="#69f0ae" opacity="0.5341884574882185"/><circle cx="79" cy="230" r="34" fill="#b2ff59" opacity="0.7983936740664679"/><rect x="292" y="468" width="58" height="58" fill="#ffd740" opacity="0.686394475188278"/><rect x="357" y="271" width="94" height="94" fill="#ffff00" opacity="0.6286719199052366"/><circle cx="516" cy="359" r="27" fill="#18ffff" opacity="0.4775578014659712"/><circle cx="675" cy="747" r="65" fill="#ffab40" opacity="0.42309378643749546"/><circle cx="259" cy="227" r="43" fill="#69f0ae" opacity="0.354129398257403"/><rect x="161" y="295" width="124" height="124" fill="#ffff00" opacity="0.69771034084919"/><rect x="696" y="614" width="66" height="66" fill="#448aff" opacity="0.7219043812157881"/><circle cx="274" cy="235" r="51" fill="#ff4081" opacity="0.7580045338713615"/><circle cx="484" cy="602" r="31" fill="#69f0ae" opacity="0.7843534256110276"/><circle cx="189" cy="321" r="49" fill="#536dfe" opacity="0.35479031414178047"/><rect x="53" y="556" width="50" height="50" fill="#b2ff59" opacity="0.4307462013568873"/><rect x="683.5" y="440.5" width="69" height="69" fill="#b2ff59" opacity="0.7977831589422091"/><rect x="127" y="669" width="136" height="136" fill="#40c4ff" opacity="0.5106816619292112"/></svg>